<svg width="282" height="282" viewBox="0 0 282 282" fill="none" xmlns="http://www.w3.org/2000/svg">
<g clip-path="url(#clip0)">
<path d="M282 141C282.022 159.113 278.544 177.06 271.758 193.854C271.742 193.892 271.729 193.925 271.713 193.963V193.967C267.151 205.212 261.151 215.818 253.862 225.521C252.456 227.398 251.006 229.236 249.511 231.036C248.965 231.695 248.41 232.35 247.855 232.996C244.998 236.313 241.991 239.49 238.836 242.528C238.102 243.238 237.359 243.938 236.609 244.631C236.433 244.794 236.258 244.952 236.083 245.115C232.408 248.473 228.558 251.634 224.549 254.584C221.858 256.574 219.096 258.464 216.264 260.253C215.642 260.65 215.016 261.039 214.386 261.422C213.294 262.089 212.191 262.741 211.078 263.378C209.627 264.212 208.157 265.02 206.669 265.802C206.068 266.123 205.463 266.432 204.859 266.74C203.974 267.195 203.086 267.633 202.189 268.063C202.034 268.138 201.88 268.213 201.726 268.284C201.142 268.567 200.549 268.843 199.957 269.118C192.242 272.676 184.219 275.523 175.987 277.624C175.941 277.637 175.899 277.645 175.853 277.657C175.315 277.795 174.773 277.929 174.231 278.058C173.826 278.158 173.417 278.254 173.008 278.346C172.958 278.362 172.906 278.375 172.854 278.383C172.016 278.579 171.177 278.767 170.33 278.938C169.855 279.038 169.379 279.138 168.904 279.234C168.616 279.297 168.324 279.351 168.036 279.405C167.673 279.476 167.314 279.543 166.951 279.614C166.751 279.656 166.551 279.689 166.346 279.722C165.887 279.806 165.429 279.889 164.974 279.968C164.198 280.102 163.414 280.231 162.634 280.348C162.066 280.436 161.503 280.519 160.936 280.598C160.268 280.694 159.601 280.782 158.929 280.865C158.746 280.895 158.562 280.915 158.379 280.936C158.141 280.965 157.903 280.995 157.665 281.024C157.186 281.082 156.706 281.136 156.222 281.187C155.972 281.216 155.725 281.241 155.475 281.266C155 281.316 154.524 281.362 154.049 281.403C153.435 281.462 152.822 281.512 152.205 281.562C151.454 281.62 150.707 281.675 149.952 281.721C149.468 281.75 148.984 281.779 148.496 281.804C147.253 281.871 146.01 281.917 144.758 281.95C144.137 281.967 143.511 281.979 142.885 281.987H142.873C142.251 281.996 141.625 282 141 282C134.658 282.003 128.324 281.579 122.04 280.732C117.43 280.114 112.894 279.277 108.432 278.221C108.253 278.179 108.073 278.137 107.898 278.091C107.448 277.987 107.001 277.874 106.555 277.762C106.159 277.662 105.766 277.557 105.37 277.453C95.1566 274.795 85.2765 270.99 75.9186 266.11C75.8727 266.085 75.8227 266.06 75.7768 266.035C75.5056 265.893 75.2387 265.756 74.9717 265.61C74.3835 265.301 73.7981 264.987 73.2154 264.667C69.899 262.844 66.6674 260.894 63.5206 258.818C62.7114 258.289 61.9104 257.75 61.1178 257.204C60.8633 257.029 60.6131 256.854 60.3628 256.678C60.0999 256.495 59.8371 256.311 59.5785 256.128C58.8902 255.64 58.206 255.146 57.5261 254.647C54.7102 252.578 51.9778 250.407 49.3289 248.135C39.9397 240.094 31.6429 230.859 24.6497 220.665C22.2093 217.111 19.9316 213.443 17.8166 209.66C6.0957 188.677 -0.0392629 165.035 -0.000273073 141C-0.000273073 63.1288 63.1285 0 141 0C218.871 0 282 63.1288 282 141Z" fill="#F7FDFF"/>
<path opacity="0.2" d="M163.673 278.091C164.123 277.987 164.57 277.874 165.016 277.762C165.412 277.662 165.804 277.557 166.201 277.453C166.221 276.623 166.251 275.709 166.28 274.721C166.526 266.978 167.106 254.513 168.474 239.496C168.549 238.69 168.624 237.88 168.699 237.064C169.187 231.974 169.759 226.622 170.443 221.074C170.464 220.89 170.489 220.711 170.51 220.527C171.065 216.03 171.695 211.412 172.404 206.707C172.9 203.415 173.437 200.088 174.014 196.724C174.056 196.491 174.097 196.253 174.139 196.019C174.306 195.047 174.477 194.079 174.652 193.103C175.14 190.388 175.662 187.655 176.208 184.923C178.131 175.311 180.422 165.642 183.154 156.235C185.93 146.479 189.348 136.918 193.387 127.613C196.519 120.386 200.251 113.432 204.542 106.826C204.604 106.73 204.667 106.639 204.73 106.543C210.215 98.2787 216.485 91.2662 223.644 86.0225L222.158 83.9951C215.3 89.0219 209.01 95.7104 203.286 104.061C203.257 104.102 203.232 104.14 203.203 104.181C198.899 110.564 195.142 117.298 191.973 124.314C187.729 133.697 184.149 143.367 181.26 153.252C178.524 162.438 176.069 172.39 173.897 183.108C173.134 186.883 172.405 190.752 171.711 194.714C171.594 195.389 171.478 196.065 171.361 196.745C171.361 196.753 171.357 196.766 171.357 196.774C171.177 197.817 171.006 198.86 170.831 199.915C170.397 202.573 169.988 205.209 169.605 207.825C169.012 211.855 168.477 215.815 167.999 219.706C167.84 220.99 167.687 222.266 167.54 223.531C167.331 225.316 167.134 227.078 166.947 228.816C166.685 231.236 166.444 233.604 166.226 235.921L166.163 236.559C166.13 236.926 166.096 237.293 166.063 237.656C164.369 255.923 163.839 270.678 163.673 278.091Z" fill="black"/>
<path opacity="0.2" d="M195.652 266.11C195.698 266.085 195.748 266.06 195.794 266.035C196.653 265.589 197.504 265.134 198.355 264.667C198.635 261.338 199.01 257.68 199.502 253.833C199.607 253.041 199.711 252.236 199.828 251.426C199.886 250.993 199.949 250.555 200.011 250.112C200.504 246.725 201.088 243.229 201.789 239.717C204.638 225.383 209.368 210.732 217.223 201.688C217.645 201.2 218.074 200.733 218.521 200.278C219.627 199.129 220.828 198.075 222.113 197.129L220.627 195.106C218.835 196.431 217.185 197.94 215.705 199.607C215.184 200.187 214.675 200.79 214.178 201.417C206.949 210.516 202.435 223.986 199.624 237.322C198.889 240.801 198.272 244.276 197.746 247.659C197.613 248.544 197.485 249.42 197.363 250.288C196.549 256.019 196.011 261.434 195.652 266.11Z" fill="black"/>
<path opacity="0.2" d="M237.672 85.9643C244.604 85.9643 250.224 80.3447 250.224 73.4126C250.224 66.4804 244.604 60.8608 237.672 60.8608C230.74 60.8608 225.12 66.4804 225.12 73.4126C225.12 80.3447 230.74 85.9643 237.672 85.9643Z" fill="black"/>
<path opacity="0.2" d="M233.63 194.012C240.562 194.012 246.181 188.393 246.181 181.461C246.181 174.529 240.562 168.909 233.63 168.909C226.698 168.909 221.078 174.529 221.078 181.461C221.078 188.393 226.698 194.012 233.63 194.012Z" fill="black"/>
<path opacity="0.2" d="M187.841 94.4956C190.503 109.512 184.627 123.11 184.627 123.11C184.627 123.11 174.436 112.36 171.774 97.3434C169.112 82.3268 174.988 68.7295 174.988 68.7295C174.988 68.7295 185.179 79.479 187.841 94.4956Z" fill="black"/>
<path opacity="0.2" d="M229.556 130.142C215.233 135.379 200.84 132.018 200.84 132.018C200.84 132.018 209.669 120.165 223.993 114.928C238.316 109.691 252.708 113.052 252.708 113.052C252.708 113.052 243.879 124.904 229.556 130.142Z" fill="black"/>
<path opacity="0.2" d="M231.984 225.822C221.945 229.493 211.843 227.099 211.843 227.099C211.843 227.099 218.017 218.752 228.057 215.081C238.096 211.41 248.198 213.805 248.198 213.805C248.198 213.805 242.024 222.151 231.984 225.822Z" fill="black"/>
<path d="M183.534 223.71L184.043 223.973C183.992 224.515 183.872 224.849 183.534 223.71Z" fill="#2F2E41"/>
<path d="M184.205 223.885C184.209 223.944 184.218 224.006 184.222 224.065L184.043 223.973C184.047 223.919 184.051 223.86 184.059 223.802C184.101 223.072 184.051 222.209 184.205 223.885Z" fill="#2F2E41"/>
<path d="M130.022 203.929C167.854 203.929 198.523 173.259 198.523 135.427C198.523 97.5949 167.854 66.9258 130.022 66.9258C92.1893 66.9258 61.5202 97.5949 61.5202 135.427C61.5202 173.259 92.1893 203.929 130.022 203.929Z" fill="#2F2E41"/>
<path d="M135.661 201.136C158.572 201.136 177.145 182.563 177.145 159.652C177.145 136.741 158.572 118.168 135.661 118.168C112.749 118.168 94.1763 136.741 94.1763 159.652C94.1763 182.563 112.749 201.136 135.661 201.136Z" fill="#87839C"/>
<path d="M230.385 239.162L230.335 239.174L220.686 241.49L200.595 246.312L197.855 246.971L167.302 254.301L164.707 254.926L90.5821 272.714C85.5712 270.797 80.6753 268.592 75.9189 266.11C75.873 266.085 75.823 266.06 75.7771 266.035C75.5059 265.893 75.2389 265.756 74.972 265.61C74.3838 265.301 73.7983 264.987 73.2157 264.667C69.8993 262.844 66.6677 260.894 63.5209 258.818C62.7116 258.289 61.9107 257.75 61.1181 257.204C60.8636 257.029 60.6133 256.854 60.363 256.678C60.1002 256.495 59.8374 256.311 59.5788 256.128C58.8904 255.64 58.2063 255.146 57.5263 254.647C64.7265 241.56 81.8718 232.863 99.017 228.103C111.957 224.507 114.802 212.689 114.556 202.172C114.494 199.773 114.29 197.38 113.947 195.005C113.424 191.226 112.593 187.495 111.461 183.851L152.947 185.236L157.228 195.097C157.11 196.18 157.073 197.271 157.115 198.359C157.44 206.448 162.434 211.679 168.595 215.054C169.396 215.492 170.218 215.901 171.052 216.281C181.156 220.874 193.049 221.186 193.049 221.186C196.671 220.786 200.329 220.855 203.933 221.391C204.809 221.524 205.66 221.684 206.486 221.871C211.308 222.948 215.864 224.987 219.881 227.865C221.415 228.957 222.866 230.16 224.223 231.465C226.635 233.722 228.71 236.314 230.385 239.162Z" fill="#87839C"/>
<path d="M236.609 244.631C236.434 244.793 236.258 244.952 236.083 245.115C232.408 248.473 228.558 251.634 224.549 254.584C221.858 256.574 219.096 258.464 216.264 260.253C215.642 260.65 215.017 261.039 214.387 261.421C213.294 262.089 212.191 262.741 211.079 263.378C209.627 264.212 208.157 265.02 206.669 265.802C206.069 266.123 205.464 266.431 204.859 266.74C203.974 267.195 203.086 267.633 202.189 268.063C202.035 268.138 201.88 268.213 201.726 268.284L199.961 266.819L220.686 241.49L224.853 236.396C224.853 236.396 226.518 236.396 230.335 239.174C232.445 240.744 234.438 242.465 236.3 244.322C236.4 244.426 236.505 244.526 236.609 244.631Z" fill="#D0CDE1"/>
<path d="M236.317 244.347C236.261 244.609 236.183 244.866 236.083 245.115C232.408 248.473 228.558 251.634 224.549 254.584C221.07 255.838 217.461 256.696 213.79 257.141C213.79 257.141 214.103 258.71 214.387 261.421C213.294 262.089 212.191 262.741 211.079 263.378C209.627 264.212 208.157 265.02 206.669 265.802C206.069 266.123 205.464 266.432 204.859 266.74C203.974 267.195 203.086 267.633 202.189 268.063C202.035 268.138 201.88 268.213 201.726 268.284C201.142 268.567 200.55 268.843 199.957 269.118C192.242 272.676 184.219 275.523 175.987 277.624C175.941 277.636 175.9 277.645 175.854 277.657C175.316 277.795 174.773 277.928 174.231 278.058C173.826 278.158 173.417 278.254 173.009 278.346C172.958 278.362 172.907 278.375 172.854 278.383C172.016 278.579 171.177 278.767 170.331 278.938C169.855 279.038 169.379 279.138 168.904 279.234C168.616 279.297 168.324 279.351 168.036 279.405C167.673 279.476 167.314 279.543 166.952 279.614C166.751 279.656 166.551 279.689 166.347 279.722C165.888 279.806 165.429 279.889 164.974 279.968C164.198 280.102 163.414 280.231 162.634 280.348C162.067 280.436 161.503 280.519 160.936 280.598C160.269 280.694 159.601 280.782 158.93 280.865C158.746 280.894 158.562 280.915 158.379 280.936C158.141 280.965 157.903 280.995 157.666 281.024C157.186 281.082 156.706 281.136 156.222 281.186C155.972 281.216 155.726 281.241 155.475 281.266C155 281.316 154.524 281.362 154.049 281.403C153.436 281.462 152.822 281.512 152.205 281.562C151.454 281.62 150.707 281.675 149.952 281.72C149.468 281.75 148.984 281.779 148.496 281.804C147.253 281.871 146.01 281.917 144.759 281.95C144.137 281.967 143.511 281.979 142.886 281.987H142.873C142.251 281.996 141.626 282 141 282C134.659 282.003 128.324 281.579 122.04 280.732C117.43 280.114 112.895 279.277 108.432 278.22C108.253 278.179 108.074 278.137 107.898 278.091C107.448 277.987 107.001 277.874 106.555 277.762C106.159 277.661 105.767 277.557 105.37 277.453C95.1568 274.795 85.2768 270.99 75.9189 266.11C75.873 266.085 75.823 266.06 75.7771 266.035C75.5059 265.893 75.2389 265.756 74.972 265.61C97.8699 260.274 134.054 251.86 165.454 244.652C166.334 244.451 167.209 244.251 168.078 244.051C179.675 241.389 190.538 238.911 199.728 236.838C200.679 236.625 201.611 236.417 202.523 236.212C212.397 233.993 220.064 232.308 224.223 231.465C225.344 231.209 226.478 231.01 227.619 230.869L236.3 244.322L236.317 244.347Z" fill="#2F2E41"/>
<path d="M67.3501 106.278C78.6193 106.278 87.7547 97.1421 87.7547 85.8729C87.7547 74.6037 78.6193 65.4683 67.3501 65.4683C56.0809 65.4683 46.9454 74.6037 46.9454 85.8729C46.9454 97.1421 56.0809 106.278 67.3501 106.278Z" fill="#2F2E41"/>
<path d="M192.693 100.448C203.962 100.448 213.098 91.3123 213.098 80.0431C213.098 68.7739 203.962 59.6384 192.693 59.6384C181.424 59.6384 172.288 68.7739 172.288 80.0431C172.288 91.3123 181.424 100.448 192.693 100.448Z" fill="#2F2E41"/>
<path d="M170.831 71.2983C170.832 66.2656 172.692 61.4108 176.055 57.6667C179.418 53.9226 184.046 51.5533 189.049 51.0142C186.2 50.7029 183.317 50.9956 180.588 51.873C177.859 52.7505 175.345 54.1931 173.211 56.1068C171.077 58.0205 169.37 60.3624 168.202 62.9799C167.033 65.5974 166.429 68.4318 166.429 71.2983C166.429 74.1648 167.033 76.9991 168.202 79.6166C169.37 82.2341 171.077 84.576 173.211 86.4897C175.345 88.4034 177.859 89.846 180.588 90.7235C183.317 91.6009 186.2 91.8936 189.049 91.5823C184.046 91.0432 179.418 88.6739 176.055 84.9298C172.692 81.1857 170.832 76.3309 170.831 71.2983Z" fill="#2F2E41"/>
<path d="M44.551 102.378C41.0294 98.7826 38.9606 94.0128 38.7423 88.9849C38.5239 83.957 40.1714 79.0258 43.3681 75.1389C41.1149 76.9109 39.2603 79.1377 37.9252 81.6743C36.5901 84.2109 35.8044 87.0003 35.6194 89.8609C35.4344 92.7214 35.8541 95.5888 36.8513 98.2763C37.8485 100.964 39.4007 103.411 41.4068 105.458C43.413 107.506 45.828 109.108 48.4946 110.16C51.1612 111.211 54.0194 111.689 56.8831 111.563C59.7468 111.436 62.5517 110.708 65.115 109.424C67.6783 108.141 69.9425 106.333 71.7601 104.116C67.8087 107.233 62.845 108.779 57.8226 108.458C52.8002 108.138 48.0736 105.972 44.551 102.378Z" fill="#2F2E41"/>
<path d="M130.022 103.363C105.873 103.363 86.2973 114.782 86.2973 128.869C86.2973 135.172 90.2322 140.932 96.7275 145.382L105.145 139.283L102.856 148.838C103.806 149.278 104.775 149.704 105.787 150.098L118.362 135.427V153.45C122.218 154.068 126.117 154.377 130.022 154.374C154.17 154.374 173.746 142.955 173.746 128.869C173.746 114.782 154.17 103.363 130.022 103.363Z" fill="#2F2E41"/>
<path d="M172.288 80.043C172.288 80.043 169.119 94.6177 188.922 100.448L172.288 80.043Z" fill="#2F2E41"/>
<path d="M86.2973 82.6958C86.2973 82.6958 93.5846 98.9903 71.7225 106.278L86.2973 82.6958Z" fill="#2F2E41"/>
<path d="M97.1044 175.939C98.943 175.424 99.4321 171.43 98.1968 167.017C96.9615 162.605 94.4696 159.445 92.6311 159.959C90.7925 160.474 90.3034 164.468 91.5387 168.881C92.774 173.294 95.2659 176.453 97.1044 175.939Z" fill="#D0CDE1"/>
<path d="M181.287 161.248C181.568 156.674 180.252 152.871 178.346 152.754C176.44 152.637 174.667 156.249 174.386 160.823C174.104 165.396 175.42 169.199 177.326 169.316C179.232 169.434 181.005 165.821 181.287 161.248Z" fill="#D0CDE1"/>
</g>
<defs>
<clipPath id="clip0">
<rect width="282" height="282" fill="white"/>
</clipPath>
</defs>
</svg>
