<svg width="66" height="66" viewBox="0 0 66 66" fill="none" xmlns="http://www.w3.org/2000/svg">
<path d="M33 38.5C37.565 38.5 41.2225 34.815 41.2225 30.25L41.25 13.75C41.25 9.185 37.565 5.5 33 5.5C28.435 5.5 24.75 9.185 24.75 13.75V30.25C24.75 34.815 28.435 38.5 33 38.5ZM29.7 13.475C29.7 11.66 31.185 10.175 33 10.175C34.815 10.175 36.3 11.66 36.3 13.475L36.2725 30.525C36.2725 32.34 34.815 33.825 33 33.825C31.185 33.825 29.7 32.34 29.7 30.525V13.475ZM47.575 30.25C47.575 38.5 40.59 44.275 33 44.275C25.41 44.275 18.425 38.5 18.425 30.25H13.75C13.75 39.6275 21.23 47.3825 30.25 48.73V57.75H35.75V48.73C44.77 47.41 52.25 39.655 52.25 30.25H47.575Z" fill="#46445F"/>
</svg>
